Coordinates
version=1
nRows=10
nColumns=40
inDegrees=yes

Units are S.I. units (second, meters, Newtons, ...)
Angles are in degrees.

endheader
time	pelvis_tilt	pelvis_list	pelvis_rotation	pelvis_tx	pelvis_ty	pelvis_tz	hip_flexion_r	hip_adduction_r	hip_rotation_r	knee_angle_r	knee_angle_r_beta	ankle_angle_r	subtalar_angle_r	mtp_angle_r	hip_flexion_l	hip_adduction_l	hip_rotation_l	knee_angle_l	knee_angle_l_beta	ankle_angle_l	subtalar_angle_l	mtp_angle_l	lumbar_extension	lumbar_bending	lumbar_rotation	arm_flex_r	arm_add_r	arm_rot_r	elbow_flex_r	pro_sup_r	wrist_flex_r	wrist_dev_r	arm_flex_l	arm_add_l	arm_rot_l	elbow_flex_l	pro_sup_l	wrist_flex_l	wrist_dev_l
     37.18750000	     -3.19442213	     -4.24564570	      3.46346736	      1.10872438	      0.92467704	      0.47608823	      4.15392715	     -1.64272694	    -12.55274431	     27.00031584	     27.00031584	     16.96098743	     -2.80753238	     -5.64332646	     23.65292726	     -4.66600170	     -0.13106738	     27.34182976	     27.34182976	      9.76783431	    -14.93962575	      3.01073936	     -8.70662372	      3.63479598	      3.35083321	     13.76482140	    -15.53623058	      9.82183370	     63.07329178	     44.04752539	      0.00000000	      0.00000000	      2.77092125	    -10.54207069	    -15.11175432	     31.40051285	     45.83456613	      0.00000000	      0.00000000
     37.20085714	     -3.05938961	     -4.14590780	      3.19163221	      1.10898620	      0.92510125	      0.47335871	      5.54140016	     -2.37369438	    -11.99936919	     30.43608603	     30.43608603	     16.09105358	     -3.91274834	     -6.75812000	     23.07074268	     -4.50623679	     -0.48535216	     27.42134146	     27.42134146	     10.17873658	    -14.94144559	      3.03240374	     -8.94879425	      3.52543425	      3.36654450	     12.97706958	    -15.51977482	      9.91860047	     61.73779013	     44.09863935	      0.00000000	      0.00000000	      3.41912154	    -10.51762817	    -14.91850481	     32.05944487	     45.82222260	      0.00000000	      0.00000000
     37.21421429	     -3.08932446	     -4.16984477	      2.90913570	      1.10920167	      0.92533023	      0.47089542	      7.08603630	     -2.82797736	    -11.15794913	     33.49643696	     33.49643696	     13.03582946	     -6.56511919	    -12.80431190	     22.65438334	     -4.46005166	     -0.73044737	     27.47631340	     27.47631340	     10.91039282	    -14.80749375	      3.66206011	     -8.84731643	      3.50629669	      2.73068626	     13.35685630	    -14.39330381	      9.57126303	     56.80549390	     44.38029403	      0.00000000	      0.00000000	      2.81807691	    -10.98178545	    -13.12026972	     34.32737415	     45.63149385	      0.00000000	      0.00000000
     37.22757143	     -2.88786698	     -4.09968446	      2.63893337	      1.10931926	      0.92574968	      0.46832493	      8.73208285	     -3.56902961	    -10.66289652	     37.38999909	     37.38999909	     11.79131799	     -7.43328731	    -13.44676666	     21.94222119	     -4.34356262	     -1.10530781	     27.43254526	     27.43254526	     11.29459612	    -14.68982270	      3.47401049	     -9.18304797	      3.46481541	      2.68462709	     12.40140550	    -14.54392972	      9.74263997	     56.02210077	     44.40369473	      0.00000000	      0.00000000	      3.54093951	    -10.98411214	    -13.01524362	     34.86612940	     45.63512843	      0.00000000	      0.00000000
     37.24092857	     -2.93899137	     -4.09544413	      2.28883268	      1.10927365	      0.92582784	      0.46616399	     10.71326114	     -4.05138690	     -9.78645435	     41.06895048	     41.06895048	      9.20188784	     -9.63991293	    -16.31694790	     21.51527778	     -4.35319707	     -1.62773722	     27.37130689	     27.37130689	     11.52685291	    -14.47968036	      2.95933022	     -9.12015812	      3.41979623	      2.51360395	     12.08687084	    -14.05098543	      9.35159374	     52.42595207	     44.61417881	      0.00000000	      0.00000000	      3.55695916	    -11.34721093	    -11.52204207	     36.63711232	     45.52459691	      0.00000000	      0.00000000
     37.25428571	     -2.73097485	     -3.99522829	      2.02157682	      1.10918607	      0.92617119	      0.46382725	     12.50816775	     -4.76890316	     -9.26106489	     44.96520554	     44.96520554	      7.52019568	    -10.40851047	    -16.47531723	     20.81449170	     -4.21632662	     -2.02995456	     27.32924509	     27.32924509	     11.91202037	    -14.31537759	      2.74880631	     -9.47698817	      3.33539385	      2.31014000	     11.17418512	    -14.21398121	      9.40256276	     51.59516539	     44.64272527	      0.00000000	      0.00000000	      4.30537295	    -11.40920821	    -11.43209006	     37.14985671	     45.53203358	      0.00000000	      0.00000000
     37.26764286	     -2.70774028	     -4.08912045	      1.70045496	      1.10902642	      0.92632932	      0.46191203	     14.52869507	     -5.04986003	     -8.45308613	     48.64570376	     48.64570376	      5.63847713	    -11.77375605	    -16.01306238	     20.36685758	     -4.38405977	     -2.64195993	     27.34862888	     27.34862888	     12.22633166	    -13.81745541	      2.23873329	     -9.51548917	      3.41909202	      2.46440303	     10.45911059	    -14.08793760	      8.84306160	     48.59519086	     44.79898812	      0.00000000	      0.00000000	      4.88191387	    -11.52200853	    -10.65336578	     38.37577381	     45.48703642	      0.00000000	      0.00000000
     37.28100000	     -2.59540449	     -4.03022146	      1.43541242	      1.10882027	      0.92664254	      0.45991858	     16.43875395	     -5.60365957	     -7.92643092	     52.22477083	     52.22477083	      4.40594086	    -12.00304078	    -14.12232740	     19.72987303	     -4.34400218	     -3.19165152	     27.18660129	     27.18660129	     12.47183231	    -13.39266612	      1.70769989	     -9.66308399	      3.35095969	      1.81302912	     10.45172848	    -13.28636526	      7.24797370	     44.89927471	     45.05931476	      0.00000000	      0.00000000	      4.91833056	    -12.12526830	     -8.95576752	     39.75940239	     45.39897719	      0.00000000	      0.00000000
     37.29435714	     -2.43420427	     -3.95619872	      1.17717640	      1.10854412	      0.92704219	      0.45794159	     18.16239595	     -6.11465164	     -7.40812738	     55.30260416	     55.30260416	      2.77212179	    -12.58790220	    -13.60726361	     19.06661118	     -4.26684884	     -3.68271262	     27.06931317	     27.06931317	     12.80153548	    -13.06444717	      1.51149142	     -9.93100332	      3.28950193	      1.52065872	      9.45071217	    -13.51737679	      7.16084446	     44.02301872	     45.09435895	      0.00000000	      0.00000000	      5.67875480	    -12.25005776	     -8.87387597	     40.22726900	     45.41098243	      0.00000000	      0.00000000
     37.30771429	     -2.31283909	     -4.06444781	      0.92462177	      1.10825118	      0.92749514	      0.45635241	     19.94032281	     -6.31218169	     -6.91236858	     58.26373536	     58.26373536	      2.81611195	    -12.15906031	     -8.69943938	     18.47312164	     -4.50182678	     -4.43886648	     26.99419217	     26.99419217	     13.20971192	    -12.10466761	      0.94178711	    -10.06825067	      3.40449623	      1.27307198	      9.38092868	    -12.88931137	      4.78239362	     39.78239378	     45.41039998	      0.00000000	      0.00000000	      6.19686355	    -12.69962495	     -7.11578222	     41.18030436	     45.33910702	      0.00000000	      0.00000000
